<svg width="30" height="30" viewBox="0 0 30 30" fill="white" xmlns="http://www.w3.org/2000/svg">
    <path d="M 20.3 0.1 C 18.8 0.1 17.3 0.5 16 1.1 C 14.7 1.8 13.5 2.8 12.6 4 C 11.7 5.2 11.1 6.6 10.9 8.1 C 10.6 9.5 10.7 11 11.2 12.5 L 0.1 23.5 V 29.9 H 6.5 L 17.5 18.8 C 18.9 19.2 20.2 19.3 21.6 19.2 C 23 19 24.3 18.5 25.4 17.8 C 26.6 17 27.6 16.1 28.3 14.9 C 29.1 13.8 29.6 12.4 29.8 11.1 C 30 9.7 29.9 8.3 29.5 7 C 29.1 5.7 28.5 4.5 27.6 3.4 C 26.7 2.4 25.5 1.6 24.3 1 C 23 0.4 21.7 0.1 20.3 0.1 Z M 20.3 17.1 C 19.6 17.1 18.9 17 18.2 16.8 L 16.9 16.4 L 16 17.3 L 12.7 20.7 L 11.2 19.3 L 9.7 20.8 L 11.2 22.2 L 9.5 23.9 L 8 22.4 L 6.5 23.9 L 8 25.4 L 5.6 27.8 H 2.3 V 24.4 L 12.7 14 L 13.6 13.1 L 13.2 11.8 C 12.7 10.3 12.8 8.7 13.3 7.3 C 13.8 5.8 14.8 4.5 16 3.6 C 17.3 2.7 18.8 2.2 20.4 2.3 C 22 2.3 23.5 2.8 24.7 3.7 C 26 4.6 26.9 6 27.4 7.4 C 27.9 8.9 27.9 10.5 27.4 12 C 26.9 13.5 25.9 14.8 24.7 15.7 C 23.4 16.6 21.9 17.1 20.3 17.1 Z" />
    <path d="M 21.4 10.8 C 22.5 10.8 23.5 9.8 23.5 8.6 C 23.5 7.5 22.5 6.5 21.4 6.5 C 20.2 6.5 19.3 7.5 19.3 8.6 C 19.3 9.8 20.2 10.8 21.4 10.8 Z"/>
</svg>