<svg width="28" height="32" viewBox="0 0 28 32" fill="none" xmlns="http://www.w3.org/2000/svg" stroke="white" stroke-width="2" stroke-linecap="round" stroke-linejoin="round">
    <path d="M 14 16 C 17.9 16 21.1 12.8 21.1 8.9 C 21.1 5 17.9 1.8 14 1.8 C 10.1 1.8 6.9 5 6.9 8.9 C 6.9 12.8 10.1 16 14 16"  />
    <path d="M 21.1 18.8 H 21.6 C 22.6 18.8 23.6 19.2 24.4 19.9 C 25.2 20.6 25.7 21.5 25.8 22.6 L 26.4 27 C 26.4 27.4 26.4 27.8 26.2 28.2 C 26.1 28.6 25.9 28.9 25.7 29.2 C 25.4 29.5 25.1 29.8 24.7 29.9 C 24.3 30.1 23.9 30.2 23.5 30.2 H 4.5 C 4.1 30.2 3.7 30.1 3.3 29.9 C 2.9 29.8 2.6 29.5 2.3 29.2 C 2.1 28.9 1.9 28.6 1.8 28.2 C 1.6 27.8 1.6 27.4 1.6 27 L 2.2 22.6 C 2.3 21.5 2.8 20.6 3.6 19.9 C 4.4 19.2 5.4 18.8 6.4 18.8 H 6.9"  />
</svg>